PathFileType	4	(X/Y/Z)	Formatted/subject19/trials/walk2/markers.trc
DataRate	CameraRate	NumFrames	NumMarkers	Units	OrigDataRate	OrigDataStartFrame	OrigNumFrames
200.00000000000426	200.00000000000426	4	64	m	200.00000000000426	186	213
Frame#	Time	CLAV			C7			RACR			RASH			RPSH			RLEL			RMEL			RUA1			RUA2			RUA3			RFAsuperior			RFAradius			RFAulna			RASI			RPSI			RCAL			RTOE			RMT5			RTH1			RTH2			RTH3			RTB1			RTB2			RTB3			RLFC			RMFC			RLMAL			RMMAL			RHJC			RKJC			REJC			RAJC			RSJC			LACR			LASH			LPSH			LLEL			LMEL			LUA1			LUA2			LUA3			LFAsuperior			LFAradius			LFAulna			LASI			LPSI			LCAL			LTOE			LMT5			LTH1			LTH2			LTH3			LTB1			LTB2			LTB3			LLFC			LMFC			LLMAL			LMMAL			LHJC			LKJC			LEJC			LAJC			LSJC			
		X1	Y1	Z1	X2	Y2	Z2	X3	Y3	Z3	X4	Y4	Z4	X5	Y5	Z5	X6	Y6	Z6	X7	Y7	Z7	X8	Y8	Z8	X9	Y9	Z9	X10	Y10	Z10	X11	Y11	Z11	X12	Y12	Z12	X13	Y13	Z13	X14	Y14	Z14	X15	Y15	Z15	X16	Y16	Z16	X17	Y17	Z17	X18	Y18	Z18	X19	Y19	Z19	X20	Y20	Z20	X21	Y21	Z21	X22	Y22	Z22	X23	Y23	Z23	X24	Y24	Z24	X25	Y25	Z25	X26	Y26	Z26	X27	Y27	Z27	X28	Y28	Z28	X29	Y29	Z29	X30	Y30	Z30	X31	Y31	Z31	X32	Y32	Z32	X33	Y33	Z33	X34	Y34	Z34	X35	Y35	Z35	X36	Y36	Z36	X37	Y37	Z37	X38	Y38	Z38	X39	Y39	Z39	X40	Y40	Z40	X41	Y41	Z41	X42	Y42	Z42	X43	Y43	Z43	X44	Y44	Z44	X45	Y45	Z45	X46	Y46	Z46	X47	Y47	Z47	X48	Y48	Z48	X49	Y49	Z49	X50	Y50	Z50	X51	Y51	Z51	X52	Y52	Z52	X53	Y53	Z53	X54	Y54	Z54	X55	Y55	Z55	X56	Y56	Z56	X57	Y57	Z57	X58	Y58	Z58	X59	Y59	Z59	X60	Y60	Z60	X61	Y61	Z61	X62	Y62	Z62	X63	Y63	Z63	X64	Y64	Z64	

187	3.65	2.142003014919163	1.426099171764449	-0.4967863956137182	2.032016871130895	1.504565692761275	-0.5389559584883872	2.054125083742858	1.461705307507052	-0.3425665391492239	2.112701854122731	1.422569706413697	-0.3172942077031854	2.018466457601624	1.440079590540521	-0.3260120937069737	1.939227631848657	1.169976676173976	-0.2820106432056685	1.929951240238473	1.16769885406648	-0.3453673732765744	2.029798082568315	1.374838920511004	-0.2991227569720296	2.042952703305475	1.283106187940223	-0.3088066472115876	1.95958897947557	1.275673179987088	-0.3023507766857149	1.985462963758951	1.0868714088617	-0.3163675586449324	1.991434488244996	0.8982051209754203	-0.2590496327242155	1.922787463934866	0.9088586826081053	-0.2670705147826696	2.119328130293925	1.004735379435221	-0.386696628726526	1.953887256711795	1.022045266501032	-0.4707316248805838	2.129091666002106	0.09654227847282315	-0.4235068717320069	2.339339296400929	0.07849227356511637	-0.4318475455828933	2.319303823256107	0.0480300157785266	-0.3273652789664164	2.077921105842655	0.8454865989332347	-0.3258771958957417	2.200595900628236	0.7408753810515492	-0.3385166607270979	2.181834827941459	0.6314936487073635	-0.3504655988384283	2.285061566621229	0.4108459677314381	-0.3965787126049263	2.227011319982424	0.3577337508301814	-0.3381280218770693	2.255451039479227	0.2329617300191302	-0.3969733376854619	2.229306300291094	0.5465968617216848	-0.3512133975591092	2.237991708671766	0.5440966295299021	-0.4641124029767307	2.207333701274612	0.1023512588700369	-0.3522712806973505	2.215732969761047	0.1020963139940504	-0.4533289048169325	2.056015751803008	0.894495856764977	-0.4290605306541707	2.239168132416909	0.5438288294541711	-0.409806379449406	1.938639094643511	1.161747676102997	-0.3129288963985339	2.198487086982532	0.09031728230447172	-0.4106395771282872	2.068557282622419	1.430772211632908	-0.32137810140166	2.081305722385217	1.461314916707521	-0.7135635488981331	2.147730499168663	1.414472825450248	-0.71219656149207	2.045956270925868	1.433383500307218	-0.7216118783761615	2.052880321428377	1.143710238096244	-0.783484151876235	2.023036342373146	1.142806076969301	-0.7256953504779045	2.072326302366508	1.36581814889617	-0.7611081733769415	2.021560403363238	1.297278038980852	-0.7431197341495346	2.096669874799446	1.253907501702601	-0.7650346912168351	2.113540093707579	1.119261934352614	-0.7288595145970236	2.270684882688049	0.9882176746897638	-0.7336698828667073	2.221483674144667	0.945291342615129	-0.7561213762092579	2.132669131469098	0.994361046320695	-0.6214738028351489	1.95889820456794	1.019957382895493	-0.5680795644257659	1.847350101977413	0.06015908414519396	-0.5671546592786281	2.052957523973109	0.04981094660367886	-0.5324453150306991	2.045464966408185	0.01464167494631297	-0.6392815292812921	2.07211172999623	0.8163435901509727	-0.6847723551092957	2.12706315852478	0.7064672640176469	-0.6580056413461802	2.031473637225478	0.5975920045465727	-0.6514724152607871	2.048214365660817	0.3565615956049316	-0.590939008819255	1.989333594217913	0.2707115602813265	-0.6402210453849576	1.989277627407424	0.1719321399763978	-0.5748611547180383	2.036061154787196	0.4937005236395972	-0.6289774832791167	2.019401252718605	0.4976740214323782	-0.517019759640255	1.934653913787735	0.06234666858603544	-0.6271082881050973	1.92842752172014	0.0643672004770886	-0.5259133989387488	2.065946870649126	0.8860580959526896	-0.5811666004745606	2.028893292547882	0.4950043197838468	-0.5709615137157704	2.041995366269024	1.132718774242834	-0.7544396412631215	1.91576043472568	0.05394975987938766	-0.5705179569718816	2.10358592766835	1.422675330669459	-0.7162804551905447	
188	3.655	2.148211825458299	1.425428049249412	-0.4963903691115164	2.038291362438234	1.503966137632863	-0.5385979425827239	2.060281394390876	1.461057423246778	-0.3422058082140962	2.118823391775469	1.421883197780589	-0.3169127530578021	2.024602342898549	1.439449457190987	-0.3256722059436605	1.943402987311057	1.170219975626844	-0.2821415115704605	1.934495796807047	1.167929734960232	-0.3455507531299587	2.035424259388479	1.374461209149123	-0.2989335975180098	2.048032174488791	1.282632638148847	-0.3084346514955003	1.964583669552642	1.275756382755702	-0.3024762575880113	1.989387218311563	1.086816768100684	-0.3160554437746937	1.993869059328897	0.8981846114074832	-0.2584898769513214	1.925343538794619	0.9092199070040865	-0.2670176057048842	2.125408213260807	1.003857113374829	-0.386610242845966	1.959874820012267	1.021581567716041	-0.4703761957050628	2.148006096224242	0.09180223033378057	-0.4234118043169738	2.358693647798748	0.07992695088141601	-0.4317285918724748	2.339567548444289	0.04916859076231966	-0.3271626845356309	2.08386973448677	0.8444700471782999	-0.3259079385494253	2.205900742881862	0.7391996411807771	-0.339284891296257	2.186476084092495	0.6299449707534136	-0.3513355328429504	2.29314496266149	0.4109913660871395	-0.3973916556210919	2.236892422278165	0.356108286577818	-0.3388192965295222	2.269614076508578	0.2322009232836326	-0.3972650378699119	2.233469647779443	0.5447866545754462	-0.352444806566896	2.241627946909823	0.5424342600958825	-0.4653863015966315	2.22594056701746	0.1001619824762401	-0.3521985315947981	2.234423248446335	0.09988834596964746	-0.4532491394085575	2.061769360180937	0.8937796848817154	-0.4289064120613684	2.242756693839524	0.5422923260467842	-0.4110554861229452	1.942947533984059	1.161959133718547	-0.3130535197863821	2.217555178719284	0.08765733090480254	-0.4105359651758946	2.074685541429076	1.43011211200139	-0.3210161187621825	2.087637960068575	1.46071824987284	-0.7131899373090742	2.154034831570111	1.413837290336845	-0.7117998918254336	2.052276098783037	1.432808850500075	-0.7212601009421606	2.059758961554383	1.143230902678615	-0.7840646222200482	2.029748572421778	1.142118986129023	-0.7263656937556082	2.07884352167461	1.365298336196396	-0.7609867288110175	2.028117112700294	1.296638913923867	-0.7433452356648823	2.103347692672737	1.253431965462987	-0.7651677237952748	2.120465760961203	1.119727002880725	-0.7292625234703014	2.279404071756479	0.9908394482291292	-0.7333654437311694	2.230869554426649	0.9472122463739929	-0.7559168593557686	2.13835069751886	0.993523121432494	-0.6214115019868052	1.964725734687024	1.019511629277274	-0.5677326242125714	1.847456493906098	0.06035462889907081	-0.5671924275791076	2.053050670629293	0.0496684481776277	-0.5325070625454791	2.045485757258902	0.01449242500555729	-0.6393359549045613	2.077104624705064	0.8156184349632654	-0.6846432707977852	2.130829932326167	0.7051599152289176	-0.657783817216662	2.034080287167233	0.5972992206993718	-0.6515038102556391	2.049120584483838	0.3562835152153551	-0.5910181532096984	1.990013791332845	0.2705842799733773	-0.6402920917693968	1.98968885872369	0.1718147394711264	-0.5749180556095648	2.037517722603234	0.493358727553465	-0.6290301588057181	2.020642883417759	0.4974765710185358	-0.517109847549443	1.934775803889753	0.0623683364692193	-0.6271533870947577	1.928547660123945	0.06442003811828978	-0.5259592328848065	2.071438248603498	0.8853650371455555	-0.5810306563665245	2.030168627730868	0.4947803097966493	-0.5710618689647623	2.048804407774746	1.132140530677357	-0.7550839472179033	1.915855907202333	0.05403013301790383	-0.5705632017513173	2.109896981223717	1.422066204557646	-0.7159032575298139	
189	3.66	2.154445619608141	1.424695871855108	-0.4959767660469367	2.044586977809862	1.503305792551803	-0.5382115617265234	2.066476860789487	1.460347195679729	-0.3418191441149188	2.124986397383826	1.421134181142623	-0.3165110889501792	2.030778931860308	1.438756841075274	-0.3253032918899094	1.947665016649435	1.170391016213278	-0.2822827505465297	1.939110045648451	1.168099329646105	-0.34574041993319	2.041106053050868	1.374015165547373	-0.2987250332381441	2.053172210256109	1.282097889443501	-0.3080705244374131	1.969647750529202	1.275768733310331	-0.3025892169075193	1.993405319331531	1.086709316853065	-0.3157712948446136	1.996436143538512	0.8981076659372674	-0.258011418651958	1.928035410648281	0.9095113005132688	-0.2670415753299391	2.131489010349352	1.002867208665059	-0.3865031862792004	1.965875781183396	1.021052148479285	-0.4700122379421135	2.166728233126809	0.08751431266347517	-0.4233464556387922	2.377670624573252	0.08172067689701183	-0.4316637196863413	2.359450384321962	0.05069005795082442	-0.327016517602808	2.089844813463158	0.8433862216732975	-0.3259531954811303	2.211198911768283	0.7374351834383439	-0.3400928056271884	2.191085144486899	0.6283118594693712	-0.3522029201053837	2.301022856172578	0.4111489643605266	-0.3982155244052432	2.246604855333855	0.354572527746991	-0.339521317106846	2.283523138320865	0.2316688728652061	-0.3975848858303567	2.237581220573333	0.5428862968558106	-0.3536700571752146	2.245160650348658	0.540652545755945	-0.466654283969687	2.244284332915362	0.09836511304670309	-0.3521638436004199	2.252848474600107	0.09808588479589969	-0.4532075648772974	2.067513806877928	0.8929731091331803	-0.428768657341795	2.246254101463591	0.5406394559628974	-0.4122944475666737	1.947334735798781	1.162104406858293	-0.3131894523871617	2.23636908052202	0.08541717648277403	-0.4104702491057264	2.080854910159334	1.429389516188073	-0.3206297964172958	2.093975301852447	1.460062232539531	-0.7127928295694681	2.160344387457593	1.413142438214184	-0.7113862325918128	2.058600324692194	1.432174910941446	-0.7208818117667215	2.066634024623268	1.142694268812332	-0.7846078338393315	2.036460809206355	1.141377802344748	-0.7269981979466055	2.085362309969411	1.364719186210724	-0.7608393250391248	2.034675667553534	1.295943562275364	-0.7435394710640483	2.110024571540435	1.252897212455339	-0.7652709225028538	2.127363859900878	1.120109995766713	-0.7296190952337365	2.288028920749981	0.9933604647110758	-0.7330127564898012	2.240161710529745	0.9490588014721999	-0.7556753088796532	2.144056478820012	0.9926387019340949	-0.6213294347452765	1.97057671116258	1.019027221746844	-0.5673769703616027	1.847565838272362	0.0605686739878491	-0.5672342325821311	2.053143755872499	0.04951765865837956	-0.5325668218943571	2.045504659062598	0.01433304588209563	-0.6393876063273682	2.082110146548064	0.8148470677918196	-0.6845301768872787	2.134619160942701	0.7038276235292186	-0.6575781841875001	2.036735780151962	0.5969803760404051	-0.651547328589351	2.050074415106507	0.3559914598523209	-0.5911033729485832	1.990730515248209	0.2704512912993502	-0.6403687162679659	1.990119575385316	0.1716942643104794	-0.5749778247856144	2.039037760911734	0.4930041870966244	-0.6290938187391658	2.021951829532441	0.4972704240512257	-0.5172110985577665	1.93490253826117	0.06239465552309803	-0.6272000701105229	1.928669894870843	0.06448129690486437	-0.5260069073730896	2.076935447537892	0.8846236186997017	-0.5809120045576434	2.031512190015962	0.4945447158971621	-0.5711727158097692	2.055611440529216	1.131506561843626	-0.7556904346497587	1.915953360314256	0.05411968737013195	-0.5706104000119381	2.116212900233101	1.421397773259634	-0.7155049400589295	
190	3.665	2.160703406381447	1.423905492838851	-0.4955453387294689	2.050902490917776	1.502587516793025	-0.537795981867938	2.072710142075279	1.459575683321779	-0.3414060680489122	2.131189642032692	1.420323684857774	-0.3160890236103195	2.0369949343614	1.438002513327085	-0.3249051228992624	1.952016999819026	1.170487483227685	-0.2824338083339869	1.943796789810346	1.168206006812361	-0.3459360773715263	2.046843198710871	1.373500659608886	-0.298496571335983	2.058374396633571	1.281501869275729	-0.3077144915740791	1.974782400173259	1.275708797852712	-0.3026888798168992	1.997518762558068	1.086545880053243	-0.3155184655919256	1.999138245206451	0.8979698109930787	-0.2576184191748742	1.930864929526412	0.9097296615700792	-0.2671424493907514	2.137571729000893	1.001772425605708	-0.3863780332432601	1.971891081963025	1.020459744326015	-0.4696420875321358	2.185205552604874	0.0836851763641677	-0.4233237613773146	2.396226471342061	0.08385952303793706	-0.4316650481081601	2.378905783938709	0.05257584322238009	-0.3269404639075859	2.095849272953339	0.8422429610256408	-0.3260119487274892	2.216501590005228	0.7355998239790092	-0.3409326713795946	2.195682972098867	0.6266105612869869	-0.3530588458497348	2.308707426595717	0.4113211445003768	-0.3990447425544908	2.256149565091071	0.3531328207268354	-0.3402313755701066	2.297157447781913	0.2313625022272165	-0.3979374333512033	2.241668768215453	0.5409159548867991	-0.3548768997271515	2.24862167829375	0.5387714367719224	-0.467903139988155	2.262319622173792	0.09695585070589308	-0.3521790981282356	2.270961151874069	0.09668794111730111	-0.4532162610416077	2.073251703080374	0.8920813036877704	-0.4286474294211512	2.249692846331638	0.5388893763821173	-0.4135100637055505	1.951803917404453	1.162181552866788	-0.3133363537863068	2.254879303738103	0.08359591842194952	-0.4104550886870162	2.087064131224075	1.428605332054223	-0.3202189253222248	2.100316922490852	1.459351574499079	-0.7123717486919295	2.166658514965183	1.412393206049758	-0.7109554580433644	2.064928230680187	1.431486340796614	-0.7204768452754227	2.073504460445601	1.142104330630157	-0.7851109554883332	2.043172257831534	1.140587035549777	-0.7275898162396494	2.091881751571889	1.36408503804643	-0.7606651923751551	2.041235201561712	1.295196411799645	-0.7437007807864935	2.116699583215881	1.252307506051804	-0.765342647891694	2.134235236543893	1.120412706080813	-0.7299283971819545	2.296556800487851	0.9957743425631853	-0.7326136449593562	2.249354410537188	0.9508257077074269	-0.7553963811508468	2.149787492931496	0.9917100348838153	-0.6212300163877706	1.976451968451393	1.018505014174938	-0.567014915027985	1.847678595800029	0.06080428411840361	-0.5672807299559247	2.053236936028781	0.0493590315598918	-0.5326251464997489	2.045521444628346	0.0141643922893564	-0.6394371370356369	2.087130726611445	0.8140316151398097	-0.6844331093007631	2.138435365666829	0.7024727432995297	-0.6573891518854236	2.039445747066892	0.5966359330204454	-0.6516023782079371	2.051081493760905	0.3556848920850768	-0.5911941278449043	1.991488014340931	0.270313377865578	-0.6404507488143736	1.990572139587656	0.1715714655720927	-0.5750405948158142	2.04062860994186	0.4926369080847837	-0.6291677902880726	2.023336463048033	0.4970552563783881	-0.5173226618371708	1.935034660988296	0.06242766373316555	-0.6272489041888394	1.928794657412134	0.06455284930825339	-0.5260569971886615	2.082440977362313	0.8838361111183192	-0.5808106754529391	2.032932112985811	0.4942970930646651	-0.5712931285735328	2.062415544319134	1.130821119008106	-0.7562560911176693	1.916053125517259	0.05422066022643268	-0.5706601808487134	2.122533004156566	1.420674853246207	-0.7150853597552695	
